# xmcd
#
# Track frame offsets: 
#        150
#        19095
#        47675
#        65175
#        85578
#        109538
#        126548
#        151599
#        170267
#        181019
#        206509
#        219519
#        243002
#
# Disc length: 3493 seconds
#
# Revision: 1
# Processed by: cddbd v1.5.1PL2 Copyright (c) Steve Scherf et al.
# Submitted via: ExactAudioCopy v0.95b4
#
DISCID=a10da30d
DTITLE=The Radiators - Dreaming Out Loud
DYEAR=2006
DGENRE=Blues
TTITLE0=Ace In The Hole
TTITLE1=Dreaming Out Loud
TTITLE2=Wrestling With The Angel
TTITLE3=Rub It In
TTITLE4=Lost Radio
TTITLE5=The Man Who Lost His Head
TTITLE6=7 Devils
TTITLE7=Don't Pray For Me
TTITLE8=Rollercoaster
TTITLE9=The Death of The Blues
TTITLE10=Desdomona
TTITLE11=Good Things
TTITLE12=Shine Tonight
EXTD=
EXTT0=
EXTT1=
EXTT2=
EXTT3=
EXTT4=
EXTT5=
EXTT6=
EXTT7=
EXTT8=
EXTT9=
EXTT10=
EXTT11=
EXTT12=
PLAYORDER=
